<svg width="35" height="35" viewBox="0 0 35 35" fill="none" xmlns="http://www.w3.org/2000/svg">
<path d="M12.1613 24C11.0393 24 10.2113 23.733 9.67731 23.199C9.14931 22.659 8.88531 21.834 8.88531 20.724C8.88531 20.544 8.95131 20.391 9.08331 20.265C9.21531 20.133 9.37131 20.067 9.55131 20.067C9.73131 20.067 9.88431 20.133 10.0103 20.265C10.1423 20.391 10.2083 20.544 10.2083 20.724C10.2083 21.48 10.3493 21.996 10.6313 22.272C10.9133 22.542 11.4233 22.677 12.1613 22.677H14.6453C15.3833 22.677 15.8903 22.542 16.1663 22.272C16.4483 21.996 16.5893 21.48 16.5893 20.724C16.5893 19.968 16.4483 19.455 16.1663 19.185C15.8903 18.915 15.3833 18.78 14.6453 18.78H12.4313C11.3693 18.78 10.5803 18.528 10.0643 18.024C9.55431 17.52 9.29931 16.74 9.29931 15.684C9.29931 14.616 9.55431 13.83 10.0643 13.326C10.5743 12.822 11.3573 12.57 12.4133 12.57H14.5913C15.6473 12.57 16.4273 12.822 16.9313 13.326C17.4413 13.83 17.6963 14.61 17.6963 15.666C17.6963 15.846 17.6303 16.002 17.4983 16.134C17.3723 16.26 17.2193 16.323 17.0393 16.323C16.8593 16.323 16.7033 16.26 16.5713 16.134C16.4393 16.002 16.3733 15.846 16.3733 15.666C16.3733 14.982 16.2473 14.517 15.9953 14.271C15.7493 14.019 15.2813 13.893 14.5913 13.893H12.4133C11.7233 13.893 11.2523 14.019 11.0003 14.271C10.7483 14.523 10.6223 14.994 10.6223 15.684C10.6223 16.362 10.7483 16.827 11.0003 17.079C11.2523 17.331 11.7293 17.457 12.4313 17.457H14.6453C15.7553 17.457 16.5773 17.724 17.1113 18.258C17.6453 18.792 17.9123 19.614 17.9123 20.724C17.9123 21.834 17.6453 22.659 17.1113 23.199C16.5773 23.733 15.7553 24 14.6453 24H12.1613ZM13.4123 25.584C13.0343 25.584 12.8453 25.395 12.8453 25.017V18.411L12.9443 17.781V11.31C12.9443 10.932 13.1333 10.743 13.5113 10.743C13.8893 10.743 14.0783 10.932 14.0783 11.31V17.853L13.9793 18.411V25.017C13.9793 25.395 13.7903 25.584 13.4123 25.584ZM20.9117 25.314C20.4677 25.314 20.2457 25.095 20.2457 24.657C20.2457 24.213 20.4677 23.991 20.9117 23.991H25.4657C25.9037 23.991 26.1227 24.213 26.1227 24.657C26.1227 25.095 25.9037 25.314 25.4657 25.314H20.9117Z" fill="black"/>
</svg>
