<svg width="75" height="75" viewBox="0 0 75 75" fill="none" xmlns="http://www.w3.org/2000/svg">
<path d="M33.9544 10.3597C32.3897 10.3969 31.2418 10.4519 29.1374 10.5816C28.1641 10.6397 27.1016 10.7252 26.3534 10.8001C26.1656 10.8205 25.7727 10.8581 25.4824 10.8856C24.2628 11.0052 22.4522 11.2338 21.6906 11.3636C21.5298 11.3911 21.2941 11.4287 21.1612 11.4491C21.0313 11.4664 20.7988 11.5071 20.6485 11.5347C20.4984 11.5621 20.2454 11.61 20.0851 11.637C19.5211 11.7327 18.5615 11.9275 18.0183 12.0574C17.8677 12.095 17.5979 12.1597 17.4203 12.201C17.2426 12.2417 17.0823 12.2793 17.0619 12.2829C16.0606 12.5217 15.0665 13.0037 14.3014 13.6287C13.5566 14.2335 12.8907 15.2104 12.5558 16.1806C12.5014 16.3308 12.4464 16.4845 12.4296 16.5222C12.3715 16.652 12.1186 17.7449 11.9374 18.6403C11.9104 18.7905 11.8625 19.0124 11.8351 19.1356C11.8075 19.2583 11.7704 19.4736 11.7464 19.6136C11.7256 19.7536 11.6985 19.9246 11.6813 19.9893C11.6299 20.1843 11.4217 21.5164 11.2883 22.4831C11.1586 23.4193 11.073 24.0993 10.9982 24.7891C10.9605 25.1271 10.9229 25.4585 10.9162 25.5236C10.906 25.5882 10.875 25.9197 10.8444 26.2581C10.8169 26.5961 10.7762 27.0095 10.7554 27.1805C10.6836 27.8087 10.5059 30.5453 10.4174 32.4755C10.3491 33.9065 10.3048 36.9709 10.3287 38.6415C10.3526 40.7252 10.4036 42.5872 10.4514 43.2362C10.4688 43.499 10.5028 44.0528 10.5232 44.4661C10.5436 44.8794 10.5711 45.4088 10.5883 45.6444C10.6668 46.8265 10.7284 47.6018 10.7589 47.8476C10.7762 47.9983 10.8169 48.3979 10.8444 48.7324C10.8718 49.0673 10.9127 49.467 10.9299 49.6207C10.9503 49.7744 10.988 50.1057 11.015 50.3588C11.1005 51.1682 11.1656 51.6976 11.2201 52.0498C11.2476 52.2376 11.2954 52.5588 11.3224 52.767C11.4217 53.5184 11.5377 54.2493 11.664 54.9193C11.6915 55.0694 11.7358 55.3225 11.7668 55.4828C11.8249 55.8243 11.9581 56.5044 12.0538 56.9345C12.3816 58.4414 12.5252 58.8918 12.9111 59.6335C13.017 59.8382 13.1535 60.0774 13.2151 60.1629C13.2731 60.2484 13.3586 60.3711 13.4029 60.4362C13.5978 60.7264 14.1547 61.2935 14.4622 61.5124C14.5131 61.5496 14.6124 61.6213 14.677 61.6728C14.7457 61.7272 14.8104 61.7684 14.8276 61.7684C14.8414 61.7684 14.8755 61.7923 14.9025 61.8199C15.0359 61.9496 15.9755 62.3971 16.3782 62.5167C16.4535 62.5406 16.5457 62.5711 16.5834 62.5885C16.6724 62.6293 17.1743 62.7555 17.7791 62.8924C18.0423 62.954 18.3121 63.0187 18.3768 63.0359C18.534 63.0767 19.5246 63.2748 20.2729 63.4116C20.7031 63.49 21.5404 63.6234 22.0662 63.6987C22.2643 63.7257 22.5173 63.7633 22.6299 63.7838C23.0432 63.8555 24.7514 64.054 25.824 64.1563C26.2099 64.194 26.6848 64.2383 26.8828 64.2586C27.204 64.2928 27.5319 64.3202 29.1032 64.4328C29.3389 64.4501 29.8755 64.4807 30.299 64.5014C30.7226 64.5219 31.3136 64.5525 31.6144 64.5697C34.0465 64.7097 41.0017 64.7097 43.3997 64.5697C43.7005 64.5493 44.2915 64.5219 44.7151 64.5014C45.4425 64.4674 45.7092 64.4501 46.85 64.3646C48.3119 64.252 50.4611 64.0434 51.1886 63.9411C51.3968 63.9104 51.7557 63.8626 51.9913 63.8316C52.8624 63.7191 54.0581 63.5379 54.7412 63.4116C55.4895 63.2748 56.4801 63.0767 56.6374 63.0359C56.702 63.0187 56.9718 62.954 57.2351 62.8924C57.826 62.7591 58.3386 62.6293 58.4307 62.5885C58.5442 62.5476 58.658 62.5077 58.7723 62.4688C59.0523 62.3767 59.9817 61.9359 60.0601 61.8606C60.084 61.8367 60.1523 61.7857 60.2104 61.7511C60.477 61.5841 60.5997 61.4885 60.8426 61.2696C61.1159 61.0201 61.4951 60.6104 61.5872 60.4703C61.6179 60.4225 61.6999 60.3065 61.768 60.2143C61.8398 60.1187 61.8979 60.0331 61.8979 60.0194C61.8979 60.0056 61.9528 59.91 62.0174 59.8076C62.0826 59.7053 62.161 59.5546 62.1921 59.4726C62.2261 59.3943 62.2601 59.3088 62.274 59.292C62.3386 59.2065 62.5779 58.5264 62.6802 58.1405C62.841 57.5428 63.1414 56.1319 63.2508 55.4655C63.2782 55.2949 63.3089 55.1345 63.3191 55.1071C63.35 55.0318 63.538 53.86 63.7084 52.6647C63.7461 52.4016 63.7837 52.1385 63.7939 52.0839C63.8215 51.9266 63.9442 50.878 63.9991 50.3246C64.0261 50.0513 64.0638 49.7368 64.0842 49.6242C64.105 49.5112 64.1422 49.1426 64.1697 48.8042C64.1971 48.4662 64.2348 48.0493 64.2517 47.8818C64.2721 47.7112 64.3031 47.3218 64.3234 47.0108C64.3438 46.6998 64.3747 46.3174 64.3916 46.1567C64.4124 45.9963 64.4497 45.4053 64.4772 44.8417C64.5081 44.2778 64.5423 43.5844 64.5627 43.3045C64.7163 40.8208 64.7163 34.303 64.5627 31.7411C64.5453 31.4504 64.5148 30.8802 64.4944 30.4771C64.4736 30.0739 64.443 29.5409 64.4258 29.2982C64.4054 29.0523 64.3611 28.4476 64.3234 27.9492C64.2857 27.4504 64.2481 26.9821 64.2378 26.9072C64.2276 26.8318 64.1971 26.5005 64.1697 26.1726C64.1422 25.8449 64.1116 25.5373 64.1014 25.4895C64.0912 25.4417 64.0536 25.1271 64.0159 24.7891C63.9274 23.9725 63.8179 23.071 63.7939 22.9651C63.7837 22.9173 63.7461 22.644 63.7084 22.3635C63.541 21.0862 63.2305 19.3062 62.9637 18.0936C62.9261 17.9226 62.865 17.6461 62.8273 17.4787C62.7316 17.0414 62.6186 16.6007 62.5814 16.5222C62.5642 16.4845 62.5336 16.3924 62.5096 16.3171C62.4343 16.0645 62.0551 15.2206 61.9595 15.0873C61.9456 15.0668 61.8367 14.9065 61.7202 14.7289C61.4778 14.3633 60.8563 13.7143 60.4837 13.4409C59.7461 12.8978 58.926 12.5287 57.8672 12.2691C57.6848 12.2245 57.5025 12.1789 57.3206 12.1322C57.1942 12.095 56.9412 12.0401 56.3981 11.9275C56.2442 11.8953 56.0905 11.8622 55.9369 11.8283C55.2776 11.6679 53.1322 11.3193 51.7352 11.1417C51.4548 11.1075 51.1784 11.0699 51.1203 11.0566C51.0176 11.0357 50.5223 10.9848 49.5148 10.8856C49.2343 10.8581 48.8485 10.8173 48.6607 10.8001C48.4729 10.7797 48.1344 10.749 47.9093 10.7283C47.6837 10.7115 47.3148 10.6804 47.0893 10.6636C46.3241 10.5985 44.1994 10.4758 43.0241 10.4243C40.7522 10.3252 36.5572 10.2946 33.9543 10.3597H33.9544ZM18.9031 33.4423C18.9235 33.4591 19.0227 33.4901 19.1215 33.514C19.3063 33.5583 19.5659 33.678 19.7603 33.8077C19.914 33.9101 20.2764 34.2995 20.3477 34.4364C20.3823 34.5046 20.4195 34.5662 20.4297 34.5764C20.4404 34.5866 20.4709 34.6548 20.4984 34.7301C20.5223 34.805 20.5528 34.8839 20.5702 34.9007C20.6144 34.9658 20.6659 35.372 20.6659 35.6729C20.6659 35.9667 20.6211 36.3117 20.5631 36.438C20.3788 36.8615 20.2898 37.0015 20.0576 37.2478C19.8423 37.4697 19.7537 37.538 19.4599 37.6816C19.2206 37.8011 19.0497 37.8627 18.9133 37.876C18.8038 37.8897 18.7081 37.9136 18.6979 37.9275C18.6741 37.9687 17.9328 37.9687 17.9328 37.9275C17.9328 37.9136 17.8473 37.8897 17.7378 37.876C17.632 37.8627 17.4991 37.8318 17.441 37.8078C17.367 37.7745 17.2918 37.7438 17.2156 37.7156C17.1505 37.6918 17.0889 37.6643 17.0787 37.654C17.0685 37.6404 17.0171 37.6098 16.959 37.5824C16.761 37.4835 16.3511 37.0289 16.2316 36.7795C16.1665 36.6462 16.1054 36.5164 16.0881 36.4894C15.972 36.2569 15.9516 35.1979 16.0606 34.9521C16.0916 34.887 16.1359 34.778 16.1598 34.7127C16.1837 34.6481 16.2112 34.5865 16.2214 34.5764C16.2316 34.5662 16.2724 34.4975 16.3101 34.4226C16.3752 34.296 16.7814 33.8587 16.8395 33.8587C16.8531 33.8587 16.8842 33.8348 16.9081 33.8043C16.9728 33.7324 17.3041 33.572 17.5058 33.5208C17.6014 33.4967 17.7073 33.4626 17.745 33.4453C17.7826 33.4286 17.8747 33.4113 17.9497 33.4011C18.1512 33.3807 18.8587 33.4113 18.9031 33.4423ZM56.1247 35.8231V37.5481H49.4976V35.2391L49.8666 35.1807C50.6831 35.0545 51.1921 34.969 51.2227 34.9485C51.2431 34.9348 51.4105 34.9077 51.5984 34.8839C51.7862 34.86 51.9572 34.8289 51.9741 34.8152C51.9949 34.8019 52.1552 34.7709 52.3329 34.747C52.5105 34.7266 52.7427 34.6854 52.8456 34.6583C52.9479 34.6345 53.1631 34.5967 53.3235 34.5764C53.4843 34.5556 53.6447 34.525 53.6823 34.5112C53.72 34.4944 53.8906 34.4635 54.0581 34.4395C54.229 34.4191 54.42 34.3885 54.4851 34.3677C54.5497 34.3508 54.7961 34.3031 55.0318 34.2653C55.2675 34.2277 55.575 34.1769 55.715 34.1528C55.8549 34.1254 56.0052 34.105 56.0495 34.1014L56.1247 34.0979V35.8231ZM27.8393 37.3466V39.3929H31.2554V42.4335H27.8362L27.8496 45.6002C27.8601 49.0129 27.853 48.8453 28.0378 49.2653C28.1778 49.5901 28.5738 49.9214 28.9154 50.0034C28.9735 50.0171 29.0386 50.0443 29.066 50.065C29.1307 50.116 30.5143 50.116 30.5759 50.0615C30.6029 50.0411 30.7261 50.0136 30.8558 49.9999L31.0849 49.976V52.9722L30.9924 53.013C30.9073 53.0505 30.5143 53.1121 29.9747 53.1769C29.2061 53.2659 27.8052 53.2761 27.7232 53.1905C27.7028 53.1737 27.6484 53.16 27.597 53.16C27.4636 53.16 26.9103 53.0572 26.8691 53.0266C26.8487 53.013 26.7566 52.9787 26.6609 52.9584C26.5688 52.9345 26.4766 52.9034 26.4558 52.8902C26.4389 52.8729 26.3605 52.8423 26.2852 52.8184C26.2099 52.7946 26.1416 52.7635 26.1314 52.7533C26.1212 52.7431 26.0596 52.7054 25.9945 52.6678C25.711 52.5176 25.6259 52.4632 25.4753 52.3364C25.3868 52.2647 25.3048 52.2036 25.2875 52.2036C25.2534 52.1999 24.9938 51.9164 24.7891 51.6569C24.6319 51.4552 24.3993 51.0694 24.3208 50.8709C24.2933 50.8063 24.2628 50.7446 24.2526 50.7344C24.2389 50.7242 24.2047 50.6184 24.1706 50.4952C24.1396 50.3725 24.0988 50.2426 24.0816 50.205C24.0648 50.1673 24.0235 50.0136 23.9965 49.8635C23.9676 49.7207 23.9367 49.5783 23.904 49.4364C23.88 49.3341 23.8631 48.1312 23.8529 45.8563L23.8393 42.4335H21.8612V39.3929H23.8428V35.9493L24.0749 35.9255C24.2012 35.9121 24.3208 35.8882 24.338 35.8745C24.3584 35.8607 24.5259 35.8302 24.7138 35.8062C24.9016 35.7824 25.0726 35.7478 25.0895 35.7345C25.1099 35.7208 25.3252 35.683 25.5679 35.6525C25.8138 35.6179 26.0291 35.5807 26.0459 35.567C26.0663 35.5533 26.1793 35.5293 26.302 35.5191C26.4626 35.4999 26.6222 35.4737 26.7805 35.4408C27.146 35.3655 27.7848 35.2661 27.8154 35.2835C27.8291 35.2901 27.8392 36.2196 27.8392 37.3466L27.8393 37.3466ZM39.1639 39.0682C39.642 39.0957 40.182 39.1572 40.2228 39.1879C40.2432 39.2015 40.3252 39.2255 40.4107 39.2357C40.6055 39.2667 41.0805 39.4066 41.3671 39.5227C41.6064 39.6185 42.1393 39.8847 42.2212 39.9534C42.2488 39.9738 42.3099 40.0145 42.3578 40.0353C42.4055 40.0592 42.5563 40.1784 42.6891 40.295C42.8224 40.4146 42.9456 40.517 42.9624 40.5235C43.0139 40.5475 43.6217 41.2856 43.6217 41.3263C43.6217 41.3365 43.6528 41.3915 43.6904 41.4424C43.7621 41.5452 44.066 42.1362 44.066 42.1738C44.066 42.1871 44.0935 42.2624 44.1307 42.3409C44.1648 42.4197 44.206 42.5394 44.2198 42.604C44.2334 42.6691 44.2575 42.7374 44.2707 42.7577C44.2844 42.7751 44.3154 42.884 44.3394 42.997C44.3598 43.1095 44.3872 43.2261 44.3974 43.2531C44.4112 43.2805 44.4417 43.4272 44.4692 43.5778C44.5101 43.8033 44.5201 44.6539 44.5339 48.4183L44.5476 52.989H40.8208L40.8174 52.5859C40.8137 52.3674 40.8035 52.0498 40.7898 51.8823L40.7694 51.5749L40.6703 51.7113C40.5134 51.92 39.9973 52.4117 39.7926 52.5482C39.3447 52.8423 39.2255 52.9136 39.1023 52.9549C39.027 52.9753 38.9282 53.0165 38.8804 53.0434C38.829 53.0674 38.7028 53.1086 38.6 53.129C38.4976 53.1528 38.3953 53.1839 38.3781 53.1972C38.204 53.327 36.0517 53.3239 35.8842 53.1941C35.8674 53.1804 35.7442 53.1499 35.6109 53.1258C35.4811 53.102 35.3273 53.0643 35.2694 53.0368C35.2149 53.013 35.0677 52.9513 34.9485 52.9034C34.8111 52.8437 34.6766 52.7777 34.5454 52.7054C34.4546 52.6494 34.3623 52.5959 34.2685 52.545C34.125 52.4662 34.0771 52.4219 33.6878 52.0324C33.2881 51.6329 33.2367 51.5784 33.2367 51.5408C33.2367 51.527 33.1924 51.4517 33.1415 51.3732C33.0865 51.2949 33.0081 51.1513 32.9668 51.0587C32.9261 50.9635 32.8712 50.8505 32.8473 50.8027C32.8203 50.7548 32.7826 50.6321 32.7587 50.5293C32.7348 50.4269 32.7043 50.3246 32.6904 50.3074C32.6528 50.2595 32.5877 49.7743 32.5877 49.5626C32.5877 49.4639 32.5709 49.3646 32.5505 49.3443C32.5093 49.303 32.5194 49.1665 32.6253 48.3429C32.6457 48.1825 32.6767 48.0356 32.6904 48.0187C32.7042 47.9983 32.7347 47.9092 32.7551 47.8171C32.7994 47.6394 32.8921 47.4072 32.9877 47.2327C33.0183 47.1747 33.0591 47.0963 33.0799 47.0551C33.1003 47.0109 33.1278 46.9767 33.1445 46.9767C33.1583 46.9767 33.1685 46.9563 33.1685 46.9324C33.1685 46.8947 33.5442 46.4061 33.6093 46.3618C33.6229 46.3516 33.647 46.3176 33.6572 46.2833C33.6708 46.2457 33.7116 46.2116 33.7493 46.2014C33.7869 46.1912 33.8175 46.1703 33.8175 46.1566C33.8175 46.1226 34.3916 45.6716 34.5862 45.5589C34.7261 45.4735 35.0407 45.3132 35.4983 45.0943C35.5634 45.0602 36.2019 44.8554 36.4823 44.7767C36.5846 44.7461 36.7863 44.7048 36.9262 44.6845C37.0662 44.6606 37.1996 44.6331 37.2168 44.6199C37.2372 44.606 37.4419 44.5751 37.6781 44.5546C37.9137 44.5342 38.204 44.5002 38.327 44.4829C38.8122 44.4112 40.5165 44.4249 40.6977 44.5002C40.7593 44.5272 40.7624 44.5138 40.7386 44.2232C40.7252 44.0558 40.7012 43.9123 40.6875 43.9021C40.6703 43.8918 40.6499 43.8272 40.6361 43.7586C40.6122 43.6322 40.4824 43.3559 40.3596 43.1676C40.2808 43.0484 39.9494 42.7063 39.9118 42.7063C39.8985 42.7063 39.8404 42.6723 39.782 42.628C39.6317 42.5185 39.3895 42.4095 39.2424 42.3821C39.1706 42.3683 39.1125 42.3444 39.1125 42.3307C39.1125 42.1805 36.9058 42.1566 36.2431 42.3036C36.1576 42.3205 35.9596 42.358 35.7991 42.3856C35.6383 42.4126 35.4779 42.4502 35.4403 42.4676C35.4026 42.4844 35.2799 42.5154 35.1669 42.5357C35.0544 42.5562 34.9313 42.5871 34.8936 42.604C34.856 42.6213 34.7195 42.6589 34.5897 42.6895C34.4599 42.7202 34.3368 42.7542 34.3163 42.7714C34.2959 42.7853 34.2038 42.8193 34.1081 42.8432C34.016 42.8671 33.9203 42.9013 33.9031 42.915C33.8826 42.9287 33.7904 42.9592 33.6979 42.9833C33.6026 43.0037 33.4692 43.0514 33.4011 43.0856C33.3293 43.1232 33.2642 43.1507 33.254 43.1507C33.2438 43.1507 33.2367 42.4365 33.2367 41.5656C33.2367 40.3322 33.2473 39.9737 33.2814 39.9463C33.3054 39.9259 33.4011 39.8918 33.4932 39.8679C33.5889 39.8475 33.6811 39.8165 33.6979 39.8028C33.7188 39.7891 33.8313 39.7484 33.9544 39.7173C34.0771 39.6831 34.1932 39.6458 34.2105 39.6322C34.2309 39.6149 34.3368 39.5874 34.4462 39.5639C34.5592 39.5401 34.6753 39.5091 34.7023 39.4922C34.7333 39.4785 34.8732 39.4408 35.0133 39.4103C35.1221 39.389 35.2304 39.3651 35.338 39.3385C35.3752 39.3278 35.5666 39.2973 35.7646 39.2697C35.9631 39.2428 36.1714 39.2051 36.2258 39.1879C36.4243 39.1266 38.2141 39.0138 38.6172 39.0377C38.7298 39.0443 38.9761 39.0581 39.1639 39.0683L39.1639 39.0682ZM20.3238 46.1912V52.989H16.3273V39.3929H20.3238V46.1912ZM50.5223 43.6287C50.5223 47.6735 50.5395 48.456 50.6215 48.5653C50.6383 48.5822 50.6592 48.6504 50.6729 48.7156C50.7208 48.9716 50.9427 49.3443 51.1952 49.5968C51.3285 49.7336 51.4787 49.8531 51.5266 49.8665C51.5779 49.8772 51.6156 49.8976 51.6156 49.9113C51.6156 49.9246 51.7352 49.9725 51.8819 50.0202C52.1008 50.0889 52.2168 50.1022 52.5584 50.1022C52.7977 50.1022 53.0058 50.0854 53.0537 50.065C53.0979 50.0412 53.2039 50.0069 53.2894 49.983C53.3749 49.9592 53.5287 49.8874 53.631 49.8187C53.8223 49.696 54.1776 49.3682 54.1776 49.3132C54.1776 49.2964 54.2255 49.2211 54.28 49.1493C54.338 49.074 54.3828 48.9991 54.3828 48.9787C54.3828 48.9579 54.4134 48.8862 54.4474 48.8179C54.4851 48.7496 54.5259 48.6336 54.5396 48.5618C54.5499 48.4865 54.5737 48.4116 54.591 48.3944C54.6765 48.285 54.6903 47.5952 54.6903 43.5879V39.3929H58.6868V52.9891H56.7943C55.3154 52.9891 54.8915 52.9789 54.8712 52.9447C54.8573 52.9243 54.8405 52.5996 54.8335 52.2274C54.8267 51.8584 54.8096 51.5545 54.7962 51.5545C54.7826 51.5545 54.7413 51.5953 54.7006 51.6466C54.5091 51.9063 54.2084 52.2 53.737 52.5894C53.6687 52.6438 53.5288 52.7191 53.2213 52.8694C53.0812 52.9376 52.9276 53.0164 52.8797 53.0403C52.8319 53.0643 52.7021 53.1019 52.589 53.1258C52.4765 53.1498 52.3773 53.1803 52.3671 53.1941C52.3331 53.2452 51.7283 53.2964 51.1306 53.2964C50.5431 53.2964 50.0648 53.2556 49.9247 53.1972C49.887 53.1804 49.7573 53.1392 49.6341 53.1086C49.5114 53.078 49.3984 53.0368 49.378 53.0231C49.3612 53.0094 49.2793 52.9752 49.2004 52.9513C49.1184 52.9309 49.0538 52.9004 49.0538 52.8867C49.0538 52.8729 48.9922 52.8424 48.9169 52.8184C48.842 52.7946 48.7803 52.7635 48.7803 52.7498C48.7803 52.7365 48.7427 52.7089 48.6985 52.6885C48.4047 52.5553 47.7384 51.9301 47.4584 51.527C47.2873 51.2812 47.0242 50.7889 46.9698 50.6082C46.9494 50.5364 46.9082 50.4305 46.8843 50.3756C46.8603 50.3176 46.8196 50.1949 46.7988 50.1023C46.7783 50.0071 46.7477 49.9077 46.7305 49.8737C46.7137 49.8426 46.6826 49.6822 46.6623 49.5148C46.6419 49.3508 46.6043 49.1834 46.5838 49.1458C46.5529 49.0947 46.5392 47.8751 46.5325 44.2335L46.5223 39.3929H50.5224L50.5223 43.6287Z" fill="white"/>
<path d="M38.7195 46.9461C38.5526 46.963 38.3815 46.9903 38.3439 47.0074C38.3062 47.0281 38.1835 47.0586 38.0705 47.0825C37.9616 47.103 37.8145 47.1441 37.7462 47.1748C37.2335 47.3967 36.9843 47.5438 36.8137 47.7214C36.6497 47.8924 36.4854 48.2101 36.4584 48.4081C36.4512 48.4763 36.4273 48.5653 36.407 48.6026C36.3693 48.6815 36.3831 48.9238 36.4446 49.2414C36.5128 49.5865 36.7862 50.0069 37.0285 50.1333C37.4591 50.3552 37.5411 50.3893 37.7804 50.427C38.2105 50.4917 39.0306 50.4545 39.2082 50.3588C39.2388 50.3415 39.3655 50.2834 39.4882 50.2289C39.6114 50.1709 39.7718 50.0783 39.8471 50.0202C39.9224 49.9623 40.0074 49.894 40.0384 49.8701C40.2329 49.7234 40.5919 49.1289 40.6396 48.883C40.6498 48.8214 40.6773 48.7496 40.6977 48.7222C40.7215 48.6916 40.7385 48.3771 40.7455 47.8135L40.7592 46.9527L40.5745 46.9324C40.325 46.9014 39.0956 46.912 38.7195 46.9461Z" fill="white"/>
</svg>
